<svg width="25" height="25" viewBox="0 0 25 25" fill="none" xmlns="http://www.w3.org/2000/svg">
<path d="M4.71008 6.23486H21.2247C21.5594 6.23488 21.8903 6.30501 22.1961 6.44073C22.502 6.57646 22.776 6.77477 23.0006 7.02289C23.2251 7.271 23.3951 7.56341 23.4998 7.88127C23.6044 8.19913 23.6412 8.53538 23.6079 8.86834L22.8894 16.0538C22.8303 16.6448 22.5537 17.1928 22.1133 17.5914C21.6729 17.9899 21.1001 18.2106 20.5062 18.2107H9.06928C8.51536 18.2109 7.97849 18.0191 7.55008 17.668C7.12167 17.3169 6.82819 16.8281 6.71962 16.285L4.71008 6.23486Z" stroke="white" stroke-width="2.21092" stroke-linejoin="round"/>
<path d="M4.71011 6.23466L3.74007 2.3509C3.6752 2.09193 3.52565 1.86206 3.31518 1.69781C3.10471 1.53356 2.84539 1.44434 2.57842 1.44434H1.11737" stroke="white" stroke-width="2.21092" stroke-linecap="round" stroke-linejoin="round"/>
<path d="M8.30286 23.0007H10.6973" stroke="white" stroke-width="2.21092" stroke-linecap="round" stroke-linejoin="round"/>
<path d="M17.8835 23.0007H20.2779" stroke="white" stroke-width="2.21092" stroke-linecap="round" stroke-linejoin="round"/>
</svg>
