<svg width="14" height="12" viewBox="0 0 14 12" fill="none" xmlns="http://www.w3.org/2000/svg">
<path fill-rule="evenodd" clip-rule="evenodd" d="M7.2144 3.43854L7.24223 3.89756L6.77829 3.84136C5.08952 3.6259 3.61416 2.89522 2.36151 1.66805L1.7491 1.05915L1.59135 1.5088C1.25731 2.51114 1.47073 3.56969 2.16665 4.28164C2.53781 4.67508 2.4543 4.73129 1.81405 4.49709C1.59135 4.42215 1.3965 4.36595 1.37794 4.39405C1.31299 4.45962 1.53568 5.31208 1.71198 5.64932C1.95323 6.1177 2.44502 6.57672 2.9832 6.84838L3.43786 7.06384L2.89969 7.07321C2.38006 7.07321 2.36151 7.08257 2.41718 7.2793C2.60276 7.8882 3.3358 8.53456 4.15234 8.8156L4.72764 9.01232L4.22658 9.31208C3.48426 9.743 2.61204 9.98656 1.73982 10.0053C1.32226 10.0147 0.978943 10.0521 0.978943 10.0802C0.978943 10.1739 2.11097 10.6985 2.76978 10.9046C4.7462 11.5135 7.09377 11.2512 8.85677 10.2114C10.1094 9.47133 11.3621 8.00061 11.9467 6.57672C12.2621 5.81794 12.5776 4.43152 12.5776 3.76641C12.5776 3.3355 12.6055 3.27929 13.1251 2.76407C13.4313 2.46431 13.7189 2.13644 13.7746 2.04276C13.8674 1.86477 13.8581 1.86477 13.3849 2.02402C12.5962 2.30506 12.4848 2.26758 12.8746 1.84604C13.1622 1.54627 13.5055 1.00295 13.5055 0.843696C13.5055 0.815593 13.3663 0.862432 13.2086 0.946741C13.0416 1.04042 12.6704 1.18093 12.3921 1.26524L11.891 1.42449L11.4363 1.11536C11.1858 0.946741 10.8332 0.759387 10.6476 0.703181C10.1744 0.572034 9.45062 0.590769 9.02379 0.740652C7.86392 1.1622 7.13089 2.24885 7.2144 3.43854Z" fill="white"/>
</svg>
