<svg width="15" height="11" viewBox="0 0 15 11" fill="none" xmlns="http://www.w3.org/2000/svg">
<path fill-rule="evenodd" clip-rule="evenodd" d="M13.3582 0.361492C13.9671 0.528562 14.4466 1.02083 14.6093 1.64597C14.905 2.77897 14.905 5.14297 14.905 5.14297C14.905 5.14297 14.905 7.5069 14.6093 8.63997C14.4466 9.26511 13.9671 9.75739 13.3582 9.92454C12.2549 10.2281 7.83007 10.2281 7.83007 10.2281C7.83007 10.2281 3.40525 10.2281 2.30181 9.92454C1.69296 9.75739 1.21347 9.26511 1.05075 8.63997C0.755127 7.5069 0.755127 5.14297 0.755127 5.14297C0.755127 5.14297 0.755127 2.77897 1.05075 1.64597C1.21347 1.02083 1.69296 0.528562 2.30181 0.361492C3.40525 0.0578613 7.83007 0.0578613 7.83007 0.0578613C7.83007 0.0578613 12.2549 0.0578613 13.3582 0.361492ZM6.50353 3.1531V7.57494L10.041 5.3641L6.50353 3.1531Z" fill="white"/>
</svg>
