<svg width="15" height="15" viewBox="0 0 15 15" fill="none" xmlns="http://www.w3.org/2000/svg">
<path fill-rule="evenodd" clip-rule="evenodd" d="M14.4682 7.91205C14.4682 8.39052 14.4195 8.86832 14.3239 9.33406C14.2306 9.78874 14.0924 10.2351 13.9114 10.6619C13.7345 11.081 13.5151 11.485 13.2588 11.8617C13.0062 12.236 12.7153 12.5872 12.3958 12.9073C12.0755 13.2261 11.7231 13.5162 11.349 13.7698C10.971 14.0243 10.5665 14.2434 10.1471 14.4211C9.71975 14.6011 9.27233 14.7391 8.81804 14.8323C8.35168 14.9282 7.87214 14.9772 7.39298 14.9772C6.91347 14.9772 6.43395 14.9282 5.96825 14.8323C5.51327 14.7391 5.06588 14.6011 4.63887 14.4211C4.21947 14.2434 3.81456 14.0243 3.43662 13.7698C3.06247 13.5162 2.71009 13.2261 2.39053 12.9073C2.07063 12.5872 1.77972 12.236 1.52684 11.8617C1.27188 11.485 1.05214 11.081 0.874582 10.6619C0.693531 10.2351 0.555015 9.78872 0.461389 9.33406C0.366737 8.86832 0.318359 8.39052 0.318359 7.91205C0.318359 7.43323 0.36671 6.95441 0.461416 6.48969C0.555043 6.035 0.693559 5.58793 0.874609 5.16189C1.05217 4.74241 1.27191 4.33811 1.52687 3.96138C1.77975 3.58675 2.07066 3.23623 2.39055 2.91574C2.71012 2.59697 3.0625 2.30756 3.43665 2.05435C3.81459 1.79871 4.2195 1.57968 4.6389 1.40165C5.06591 1.22119 5.51327 1.08288 5.96828 0.990438C6.43398 0.895232 6.91349 0.846924 7.39301 0.846924C7.87216 0.846924 8.35168 0.895232 8.81807 0.990438C9.27236 1.08291 9.71975 1.22122 10.1471 1.40165C10.5665 1.57965 10.9711 1.79871 11.349 2.05435C11.7232 2.30756 12.0756 2.59697 12.3958 2.91574C12.7154 3.23623 13.0063 3.58675 13.2588 3.96138C13.5151 4.33811 13.7345 4.74244 13.9114 5.16189C14.0924 5.58793 14.2306 6.035 14.3239 6.48969C14.4195 6.95441 14.4682 7.43323 14.4682 7.91205ZM4.81502 2.45485C3.13013 3.24935 1.87261 4.79966 1.48049 6.66806C1.63977 6.66944 4.15759 6.70119 7.05852 5.93152C6.01279 4.07623 4.89552 2.56217 4.81502 2.45485ZM7.55911 6.86058C4.44813 7.7906 1.46287 7.72368 1.35579 7.71956C1.35404 7.78441 1.35094 7.84718 1.35094 7.91205C1.35094 9.462 1.93652 10.875 2.89901 11.9434C2.89693 11.9403 4.5504 9.01113 7.81097 7.95828C7.88972 7.93207 7.96989 7.90859 8.04934 7.88583C7.8977 7.54295 7.73218 7.19934 7.55911 6.86058ZM11.3832 3.38389C10.3195 2.44725 8.92272 1.87912 7.39296 1.87912C6.90204 1.87912 6.42562 1.93846 5.96926 2.04815C6.05976 2.1696 7.19466 3.67299 8.22796 5.56757C10.5078 4.71412 11.3683 3.40595 11.3832 3.38389ZM8.46119 8.88557C8.44773 8.89002 8.43428 8.89387 8.42112 8.89868C4.85624 10.1397 3.69207 12.6406 3.67948 12.6679C4.70521 13.4644 5.99176 13.945 7.393 13.945C8.22972 13.945 9.02672 13.7749 9.75186 13.4669C9.66239 12.9397 9.31139 11.092 8.46119 8.88557ZM10.7693 12.9156C12.1259 12.0014 13.0895 10.5498 13.3582 8.86829C13.2339 8.82828 11.5435 8.2939 9.59325 8.60612C10.3858 10.7809 10.7078 12.552 10.7693 12.9156ZM8.69302 6.46659C8.83325 6.75431 8.96905 7.04714 9.09444 7.34145C9.13902 7.44702 9.18256 7.55052 9.22504 7.654C11.3006 7.39318 13.3455 7.83199 13.4329 7.84991C13.4191 6.41966 12.9067 5.10702 12.059 4.07936C12.0476 4.09554 11.0785 5.49374 8.69302 6.46659Z" fill="white"/>
</svg>
