<svg width="15" height="15" viewBox="0 0 15 15" fill="none" xmlns="http://www.w3.org/2000/svg">
<path fill-rule="evenodd" clip-rule="evenodd" d="M7.17558 0.846924C5.25412 0.846924 5.01298 0.855325 4.25831 0.889669C3.50512 0.924159 2.991 1.0434 2.54115 1.21836C2.07582 1.39907 1.68109 1.6408 1.28784 2.0342C0.894293 2.42745 0.652564 2.82218 0.471266 3.28736C0.295865 3.73736 0.176474 4.25163 0.142573 5.00453C0.108819 5.75919 0.0999756 6.00048 0.0999756 7.92194C0.0999756 9.84339 0.108525 10.0838 0.14272 10.8385C0.177359 11.5917 0.296602 12.1058 0.471414 12.5556C0.652269 13.021 0.893999 13.4157 1.2874 13.8089C1.6805 14.2025 2.07523 14.4448 2.54027 14.6255C2.99041 14.8005 3.50468 14.9197 4.25772 14.9542C5.01239 14.9885 5.25339 14.9969 7.1747 14.9969C9.0963 14.9969 9.3367 14.9885 10.0914 14.9542C10.8446 14.9197 11.3593 14.8005 11.8094 14.6255C12.2746 14.4448 12.6687 14.2025 13.0618 13.8089C13.4554 13.4157 13.6971 13.021 13.8784 12.5558C14.0523 12.1058 14.1717 11.5915 14.2071 10.8386C14.241 10.0839 14.2499 9.84339 14.2499 7.92194C14.2499 6.00048 14.241 5.75934 14.2071 5.00467C14.1717 4.25148 14.0523 3.73736 13.8784 3.28751C13.6971 2.82218 13.4554 2.42745 13.0618 2.0342C12.6683 1.64065 12.2747 1.39892 11.809 1.21836C11.3579 1.0434 10.8435 0.924159 10.0903 0.889669C9.33567 0.855325 9.09541 0.846924 7.17337 0.846924H7.17558ZM6.54086 2.12188C6.72923 2.12159 6.93942 2.12188 7.17555 2.12188C9.06458 2.12188 9.28847 2.12866 10.0344 2.16256C10.7243 2.1941 11.0986 2.30937 11.348 2.40621C11.6782 2.53444 11.9136 2.68773 12.1611 2.93536C12.4087 3.18298 12.562 3.41882 12.6905 3.74899C12.7874 3.99809 12.9028 4.37247 12.9342 5.06228C12.9681 5.80811 12.9754 6.03215 12.9754 7.9203C12.9754 9.80844 12.9681 10.0325 12.9342 10.7783C12.9026 11.4681 12.7874 11.8425 12.6905 12.0916C12.5623 12.4218 12.4087 12.6569 12.1611 12.9043C11.9134 13.152 11.6784 13.3053 11.348 13.4335C11.0989 13.5308 10.7243 13.6458 10.0344 13.6773C9.28862 13.7112 9.06458 13.7186 7.17555 13.7186C5.28637 13.7186 5.06248 13.7112 4.31665 13.6773C3.62684 13.6455 3.25245 13.5302 3.00291 13.4334C2.67274 13.3051 2.43691 13.1518 2.18929 12.9042C1.94166 12.6566 1.78837 12.4213 1.65984 12.091C1.563 11.8419 1.44759 11.4675 1.41619 10.7777C1.38229 10.0319 1.37551 9.80785 1.37551 7.91853C1.37551 6.0292 1.38229 5.80634 1.41619 5.06052C1.44774 4.3707 1.563 3.99632 1.65984 3.74692C1.78807 3.41675 1.94166 3.18092 2.18929 2.9333C2.43691 2.68567 2.67274 2.53238 3.00291 2.40385C3.25231 2.30657 3.62684 2.1916 4.31665 2.15991C4.96932 2.13043 5.22225 2.12159 6.54086 2.12011V2.12188ZM10.9521 3.29663C10.4834 3.29663 10.1031 3.67647 10.1031 4.14534C10.1031 4.61406 10.4834 4.99434 10.9521 4.99434C11.4209 4.99434 11.8011 4.61406 11.8011 4.14534C11.8011 3.67662 11.4209 3.29663 10.9521 3.29663ZM7.17559 4.2886C5.16909 4.2886 3.54228 5.91541 3.54228 7.92192C3.54228 9.92842 5.16909 11.5545 7.17559 11.5545C9.18209 11.5545 10.8083 9.92842 10.8083 7.92192C10.8083 5.91541 9.18209 4.2886 7.17559 4.2886ZM7.17556 5.56358C8.47795 5.56358 9.5339 6.61938 9.5339 7.92192C9.5339 9.22431 8.47795 10.2803 7.17556 10.2803C5.87302 10.2803 4.81722 9.22431 4.81722 7.92192C4.81722 6.61938 5.87302 5.56358 7.17556 5.56358Z" fill="white"/>
</svg>
