<svg width="23" height="23" viewBox="0 0 23 23" fill="none" xmlns="http://www.w3.org/2000/svg">
<path fill-rule="evenodd" clip-rule="evenodd" d="M11.4208 21.1717C16.9155 21.1717 21.37 16.7173 21.37 11.2226C21.37 5.72788 16.9155 1.27343 11.4208 1.27343C5.92612 1.27343 1.47167 5.72788 1.47167 11.2226C1.47167 16.7173 5.92612 21.1717 11.4208 21.1717ZM11.4208 22.2772C17.5263 22.2772 22.4754 17.328 22.4754 11.2226C22.4754 5.11712 17.5263 0.167969 11.4208 0.167969C5.31536 0.167969 0.366211 5.11712 0.366211 11.2226C0.366211 17.328 5.31536 22.2772 11.4208 22.2772Z" fill="white"/>
<path d="M4.78809 17.6508C4.78809 17.0799 5.21479 16.5973 5.783 16.5343C10.0473 16.0623 12.8137 16.1048 17.0686 16.5448C17.2811 16.5671 17.4825 16.6508 17.6482 16.7857C17.8139 16.9206 17.9367 17.1008 18.0016 17.3043C18.0666 17.5079 18.0709 17.7259 18.0139 17.9318C17.957 18.1377 17.8413 18.3226 17.6811 18.4639C12.6595 22.841 9.78974 22.7807 5.14183 18.4683C4.91521 18.2583 4.78809 17.9598 4.78809 17.6514V17.6508Z" fill="white"/>
<path fill-rule="evenodd" clip-rule="evenodd" d="M17.0115 17.0945C12.7903 16.6578 10.0637 16.6169 5.843 17.084C5.5589 17.1155 5.34057 17.3581 5.34057 17.6516C5.34057 17.8097 5.40635 17.9595 5.51744 18.0634C7.82122 20.2003 9.56675 21.1659 11.273 21.172C12.9854 21.1781 14.8249 20.2202 17.3177 18.0479C17.3969 17.9775 17.4539 17.8855 17.4818 17.7832C17.5097 17.6809 17.5073 17.5727 17.4748 17.4718C17.4424 17.3709 17.3813 17.2815 17.2991 17.2146C17.2168 17.1478 17.1169 17.1062 17.0115 17.095V17.0945ZM5.72195 15.9852C10.031 15.5082 12.8378 15.5513 17.1259 15.9951C17.4455 16.0285 17.7485 16.1543 17.9977 16.3572C18.247 16.5601 18.4316 16.8313 18.5291 17.1375C18.6266 17.4438 18.6327 17.7718 18.5466 18.0814C18.4605 18.3911 18.2861 18.6689 18.0445 18.8809C15.5158 21.0852 13.4099 22.2857 11.2697 22.2774C9.12346 22.2697 7.11041 21.0487 4.76628 18.8737C4.59845 18.7174 4.46466 18.5281 4.37326 18.3178C4.28187 18.1074 4.23484 17.8805 4.23511 17.6511C4.2343 17.239 4.38557 16.8411 4.65992 16.5336C4.93427 16.2261 5.31243 16.0306 5.72195 15.9846V15.9852Z" fill="white"/>
<path d="M15.8425 9.01168C15.8425 10.1844 15.3766 11.3091 14.5473 12.1384C13.7181 12.9677 12.5934 13.4335 11.4206 13.4335C10.2479 13.4335 9.12316 12.9677 8.29391 12.1384C7.46465 11.3091 6.99878 10.1844 6.99878 9.01168C6.99878 7.83894 7.46465 6.71423 8.29391 5.88497C9.12316 5.05571 10.2479 4.58984 11.4206 4.58984C12.5934 4.58984 13.7181 5.05571 14.5473 5.88497C15.3766 6.71423 15.8425 7.83894 15.8425 9.01168Z" fill="white"/>
<path fill-rule="evenodd" clip-rule="evenodd" d="M11.4206 12.3281C12.3002 12.3281 13.1437 11.9787 13.7657 11.3567C14.3876 10.7348 14.737 9.89124 14.737 9.01168C14.737 8.13213 14.3876 7.28859 13.7657 6.66665C13.1437 6.04471 12.3002 5.6953 11.4206 5.6953C10.5411 5.6953 9.69753 6.04471 9.07558 6.66665C8.45364 7.28859 8.10424 8.13213 8.10424 9.01168C8.10424 9.89124 8.45364 10.7348 9.07558 11.3567C9.69753 11.9787 10.5411 12.3281 11.4206 12.3281ZM11.4206 13.4335C12.5934 13.4335 13.7181 12.9677 14.5473 12.1384C15.3766 11.3091 15.8425 10.1844 15.8425 9.01168C15.8425 7.83894 15.3766 6.71423 14.5473 5.88497C13.7181 5.05571 12.5934 4.58984 11.4206 4.58984C10.2479 4.58984 9.12316 5.05571 8.29391 5.88497C7.46465 6.71423 6.99878 7.83894 6.99878 9.01168C6.99878 10.1844 7.46465 11.3091 8.29391 12.1384C9.12316 12.9677 10.2479 13.4335 11.4206 13.4335Z" fill="white"/>
</svg>
