<svg width="13" height="8" viewBox="0 0 13 8" fill="none" xmlns="http://www.w3.org/2000/svg">
<path d="M12.16 1.82482C12.1604 1.97921 12.1318 2.13175 12.0762 2.27124C12.0206 2.41073 11.9394 2.53363 11.8386 2.63089L6.62768 7.62233C6.47228 7.77433 6.27735 7.85742 6.07619 7.85742C5.87502 7.85742 5.6801 7.77433 5.5247 7.62233L0.313745 2.45521C0.136384 2.2798 0.0248484 2.02773 0.00367478 1.75447C-0.0174988 1.48121 0.0534239 1.20913 0.20084 0.998083C0.348257 0.78704 0.560092 0.654324 0.789744 0.629129C1.0194 0.603934 1.24805 0.688325 1.42541 0.863737L6.08053 5.48314L10.7356 1.01875C10.8631 0.892381 11.0184 0.812107 11.183 0.787429C11.3476 0.762752 11.5147 0.794702 11.6646 0.8795C11.8144 0.964299 11.9407 1.0984 12.0285 1.26592C12.1163 1.43345 12.1619 1.6274 12.16 1.82482Z" fill="#FF56F6"/>
</svg>
